# xmcd
#
# Track frame offsets: 
#        150
#        16334
#        29695
#        43931
#        61192
#        74377
#        91283
#        97619
#        109543
#        120798
#        131386
#        146336
#        167621
#
# Disc length: 2384 seconds
#
# Revision: 0
# Processed by: cddbd v1.4PL0 Copyright (c) Steve Scherf et al.
# Submitted via: ExactAudioCopy v0.90b4
#
DISCID=9c094e0d
DTITLE=Billy Joe Shaver - Try And Try Again
DYEAR=2003
DGENRE=Country
TTITLE0=Try and Try Again
TTITLE1=Live Forever
TTITLE2=Georgia on a Fast Train
TTITLE3=When Fallen Angels Fly
TTITLE4=Honky Tonk Heroes
TTITLE5=Hottest Thing in Town
TTITLE6=You Wouldn't Know Love
TTITLE7=Old Chunk of Coal
TTITLE8=You Asked Me To
TTITLE9=Black Rose
TTITLE10=L.A. Turnaround
TTITLE11=Tramp on Your Street
TTITLE12=You Can't Beat Jesus Christ
EXTD=
EXTT0=
EXTT1=
EXTT2=
EXTT3=
EXTT4=
EXTT5=
EXTT6=
EXTT7=
EXTT8=
EXTT9=
EXTT10=
EXTT11=
EXTT12=
PLAYORDER=
